<?xml version="1.0" encoding="UTF-8" standalone="no"?>
<!-- Created with Inkscape (http://www.inkscape.org/) -->

<svg
   xmlns:dc="http://purl.org/dc/elements/1.1/"
   xmlns:cc="http://creativecommons.org/ns#"
   xmlns:rdf="http://www.w3.org/1999/02/22-rdf-syntax-ns#"
   xmlns:svg="http://www.w3.org/2000/svg"
   xmlns="http://www.w3.org/2000/svg"
   xmlns:sodipodi="http://sodipodi.sourceforge.net/DTD/sodipodi-0.dtd"
   xmlns:inkscape="http://www.inkscape.org/namespaces/inkscape"
   width="24mm"
   height="24mm"
   viewBox="0 0 85.03937 85.03937"
   id="svg2"
   version="1.1"
   inkscape:version="0.91 r13725"
   sodipodi:docname="logo.svg">
  <defs
     id="defs4">
    <inkscape:path-effect
       effect="powerstroke"
       id="path-effect4157"
       is_visible="true"
       offset_points="0,0.73214286 | 1.5083495,1.3195833 | 2.6895874,1.6224235"
       sort_points="true"
       interpolator_type="Linear"
       interpolator_beta="0.2"
       start_linecap_type="square"
       linejoin_type="round"
       miter_limit="4"
       end_linecap_type="butt" />
    <inkscape:path-effect
       effect="powerstroke"
       id="path-effect4153"
       is_visible="true"
       offset_points="0,0.76599863 | 1.9863903,1.2699451 | 2.9024819,1.901299"
       sort_points="true"
       interpolator_type="Linear"
       interpolator_beta="0.2"
       start_linecap_type="square"
       linejoin_type="round"
       miter_limit="4"
       end_linecap_type="butt" />
    <inkscape:path-effect
       effect="powerstroke"
       id="path-effect4313"
       is_visible="true"
       offset_points="0,0.56889043 | 5.0151902,2.0198706 | 9.9120261,0.5993819"
       sort_points="true"
       interpolator_type="Linear"
       interpolator_beta="0.2"
       start_linecap_type="square"
       linejoin_type="round"
       miter_limit="4"
       end_linecap_type="square" />
    <inkscape:path-effect
       effect="powerstroke"
       id="path-effect4288"
       is_visible="true"
       offset_points="0,1 | 5,1 | 10,1"
       sort_points="true"
       interpolator_type="Linear"
       interpolator_beta="0.2"
       start_linecap_type="round"
       linejoin_type="round"
       miter_limit="4"
       end_linecap_type="round" />
    <inkscape:path-effect
       effect="clone_original"
       id="path-effect4286"
       is_visible="false"
       linkedpath="" />
    <inkscape:path-effect
       effect="powerstroke"
       id="path-effect4284"
       is_visible="true"
       offset_points="0,1 | 5,1 | 10,1"
       sort_points="true"
       interpolator_type="Linear"
       interpolator_beta="0.2"
       start_linecap_type="zerowidth"
       linejoin_type="round"
       miter_limit="4"
       end_linecap_type="zerowidth" />
    <inkscape:path-effect
       effect="powerstroke"
       id="path-effect4313-6"
       is_visible="true"
       offset_points="0,0.56889043 | 5.0151902,2.0198706 | 9.9120261,0.5993819"
       sort_points="true"
       interpolator_type="Linear"
       interpolator_beta="0.2"
       start_linecap_type="square"
       linejoin_type="round"
       miter_limit="4"
       end_linecap_type="square" />
    <inkscape:path-effect
       effect="powerstroke"
       id="path-effect4313-5"
       is_visible="true"
       offset_points="0,0.56889043 | 5.0151902,2.0198706 | 9.9120261,0.5993819"
       sort_points="true"
       interpolator_type="Linear"
       interpolator_beta="0.2"
       start_linecap_type="square"
       linejoin_type="round"
       miter_limit="4"
       end_linecap_type="square" />
    <inkscape:path-effect
       effect="powerstroke"
       id="path-effect4157-3"
       is_visible="true"
       offset_points="0,0.73214286 | 1.5083495,1.3195833 | 2.6895874,1.6224235"
       sort_points="true"
       interpolator_type="Linear"
       interpolator_beta="0.2"
       start_linecap_type="square"
       linejoin_type="round"
       miter_limit="4"
       end_linecap_type="butt" />
  </defs>
  <sodipodi:namedview
     id="base"
     pagecolor="#202020"
     bordercolor="#666666"
     borderopacity="1.0"
     inkscape:pageopacity="1"
     inkscape:pageshadow="2"
     inkscape:zoom="15.839192"
     inkscape:cx="47.734141"
     inkscape:cy="37.471536"
     inkscape:document-units="px"
     inkscape:current-layer="layer1"
     showgrid="false"
     inkscape:window-width="3776"
     inkscape:window-height="2069"
     inkscape:window-x="64"
     inkscape:window-y="62"
     inkscape:window-maximized="1"
     fit-margin-top="0"
     fit-margin-left="0"
     fit-margin-right="0"
     fit-margin-bottom="0" />
  <metadata
     id="metadata7">
    <rdf:RDF>
      <cc:Work
         rdf:about="">
        <dc:format>image/svg+xml</dc:format>
        <dc:type
           rdf:resource="http://purl.org/dc/dcmitype/StillImage" />
        <dc:title></dc:title>
      </cc:Work>
    </rdf:RDF>
  </metadata>
  <g
     inkscape:label="Layer 1"
     inkscape:groupmode="layer"
     id="layer1"
     transform="translate(-245.83742,-655.83673)">
    <g
       id="g4177"
       transform="matrix(1.0526394,0,0,1.0526394,-11.551794,-47.080493)"
       style="fill:#ed7a0d;fill-opacity:1;stroke:none">
      <path
         inkscape:original-d="m 269.36814,713.51359 c 0,0 13.38484,-15.87963 16.12623,-19.92645 3.97747,-5.87151 5.06544,-8.39249 5.05075,-11.99556 -0.009,-2.28569 -0.3788,-5.17703 -3.78807,-5.24016 -4.48223,-0.083 -5.53537,5.17646 -5.55584,10.73287 -0.0179,4.86296 3.283,15.53109 4.5457,19.63483 1.57839,5.0861 4.6156,12.8568 4.86135,22.53903 0.16513,6.50566 -2.84105,10.10153 -6.12405,10.16466 -3.60298,0.0693 -5.24017,-1.70463 -5.3033,-6.62913 -0.0631,-4.92449 1.38896,-9.02823 6.31345,-14.89974 2.78998,-3.32652 15.78363,-19.0035 15.78363,-19.0035"
         inkscape:path-effect="#path-effect4313"
         sodipodi:nodetypes="csssscssssc"
         inkscape:connector-curvature="0"
         id="path4282"
         d="m 269.80312,713.88023 c 0.0376,0.0302 3.42187,-3.91001 7.15074,-8.35848 1.86395,-2.22364 3.81598,-4.57666 5.47879,-6.62399 1.65505,-2.03777 3.04623,-3.79967 3.77225,-4.82929 2.02578,-2.90508 3.38987,-5.05537 4.23926,-6.94287 0.86627,-1.92501 1.20754,-3.59485 1.24848,-5.5387 0.0414,-1.1458 0.0102,-2.71052 -0.61595,-4.03715 -0.69456,-1.47148 -2.08163,-2.5434 -4.29304,-2.63493 -1.42587,-0.0509 -2.66985,0.33124 -3.70431,1.10423 -1.01733,0.76021 -1.72974,1.82017 -2.23498,2.98 -0.99384,2.28149 -1.31144,5.24254 -1.3693,8.07888 -0.0562,2.70994 0.77275,6.77715 1.70769,10.57744 0.94718,3.85006 2.05277,7.59096 2.63781,9.65648 0.0247,0.0845 0.0482,0.16488 0.0721,0.24572 1.7179,5.15754 4.65264,12.52873 4.98198,21.74458 0.1244,2.98817 -0.48447,5.16917 -1.35952,6.57567 -0.86489,1.39017 -1.9822,2.03406 -3.05865,2.10115 -1.54947,0.0778 -2.41064,-0.24018 -2.94973,-0.82532 -0.62027,-0.67324 -1.09138,-1.97356 -1.17188,-4.37476 -0.15352,-4.59106 1.05761,-8.49972 5.82147,-14.32977 1.36326,-1.70068 5.26813,-6.47783 8.82935,-10.8453 2.93371,-3.5979 5.63052,-6.91336 6.46789,-7.98596 0.0927,-0.11179 0.19325,-0.23314 0.28592,-0.34493 l 0.38249,-0.46148 -0.92296,-0.76498 -0.38249,0.46148 c 0.0927,-0.11179 -0.19321,0.23309 -0.28587,0.34488 -0.89864,1.02166 -3.65668,4.28611 -6.65146,7.83284 -3.63269,4.3022 -7.62046,9.02769 -9.04677,10.65309 -5.08896,5.91665 -6.77426,10.20811 -6.80543,15.4697 -0.0148,2.52382 0.3591,4.57169 1.47653,5.99973 1.18638,1.51613 2.9646,2.04941 5.00847,2.05846 2.20536,0.007 4.235,-1.18464 5.65149,-3.23162 1.40716,-2.0335 2.2195,-4.90351 2.17843,-8.42088 -0.15511,-9.85944 -3.11817,-17.84081 -4.59487,-22.86622 -0.0254,-0.0761 -0.0505,-0.15154 -0.0752,-0.22618 -0.67742,-2.03751 -1.85123,-5.67469 -2.8669,-9.4043 -1.03172,-3.78855 -1.83425,-7.46067 -1.87756,-9.6268 -0.0391,-2.72292 0.18355,-5.16409 0.84022,-6.88355 0.31993,-0.83774 0.71441,-1.4273 1.15485,-1.80207 0.42588,-0.36236 0.99117,-0.60867 1.80802,-0.61701 1.19016,-0.0221 1.70804,0.37062 2.04523,0.93831 0.41799,0.7037 0.5668,1.73259 0.62192,2.86977 0.0543,1.66011 -0.13839,3.05084 -0.80815,4.75569 -0.68382,1.74066 -1.85538,3.78857 -3.80561,6.75403 -0.63907,0.98703 -1.96022,2.74115 -3.58024,4.81222 -1.61759,2.06795 -3.52633,4.44426 -5.351,6.69606 -3.64889,4.50305 -6.95706,8.50267 -6.91944,8.53285 l -0.36664,0.43498 0.86996,0.73328 0.36664,-0.43498 z"
         style="fill:#ed7a0d;fill-opacity:1;fill-rule:nonzero;stroke:none;stroke-width:1px;stroke-linecap:butt;stroke-linejoin:miter;stroke-opacity:1" />
      <path
         inkscape:original-d="m 249.47033,713.52301 c 0,0 13.38484,-15.87963 16.12623,-19.92645 3.97747,-5.87151 5.06544,-8.39249 5.05075,-11.99556 -0.009,-2.28569 -0.3788,-5.17703 -3.78807,-5.24016 -4.48223,-0.083 -5.53537,5.17646 -5.55584,10.73287 -0.0179,4.86296 3.283,15.53109 4.5457,19.63483 1.57839,5.0861 4.6156,12.8568 4.86135,22.53903 0.16513,6.50566 -2.84105,10.10153 -6.12405,10.16466 -3.60298,0.0693 -5.24017,-1.70463 -5.3033,-6.62913 -0.0631,-4.92449 1.38896,-9.02823 6.31345,-14.89974 2.78998,-3.32652 15.78363,-19.0035 15.78363,-19.0035"
         inkscape:path-effect="#path-effect4313-6"
         sodipodi:nodetypes="csssscssssc"
         inkscape:connector-curvature="0"
         id="path4282-0"
         d="m 249.90531,713.88965 c 0.0376,0.0302 3.42187,-3.91001 7.15074,-8.35848 1.86395,-2.22364 3.81598,-4.57666 5.47879,-6.62399 1.65505,-2.03777 3.04623,-3.79967 3.77225,-4.82929 2.02578,-2.90508 3.38987,-5.05537 4.23926,-6.94287 0.86627,-1.92501 1.20754,-3.59485 1.24848,-5.5387 0.0414,-1.1458 0.0102,-2.71052 -0.61595,-4.03715 -0.69456,-1.47148 -2.08163,-2.5434 -4.29304,-2.63493 -1.42587,-0.0509 -2.66985,0.33124 -3.70431,1.10423 -1.01733,0.76021 -1.72974,1.82017 -2.23498,2.98 -0.99384,2.28149 -1.31144,5.24254 -1.3693,8.07888 -0.0562,2.70994 0.77275,6.77715 1.70769,10.57744 0.94718,3.85006 2.05277,7.59096 2.63781,9.65648 0.0247,0.0845 0.0482,0.16488 0.0721,0.24572 1.7179,5.15754 4.65264,12.52873 4.98198,21.74458 0.1244,2.98817 -0.48447,5.16917 -1.35952,6.57567 -0.86489,1.39017 -1.9822,2.03406 -3.05865,2.10115 -1.54947,0.0778 -2.41064,-0.24018 -2.94973,-0.82532 -0.62027,-0.67324 -1.09138,-1.97356 -1.17188,-4.37476 -0.15352,-4.59106 1.05761,-8.49972 5.82147,-14.32977 1.36326,-1.70068 5.26813,-6.47783 8.82935,-10.8453 2.93371,-3.5979 5.63052,-6.91336 6.46789,-7.98596 0.0927,-0.11179 0.19325,-0.23314 0.28592,-0.34493 l 0.38249,-0.46148 -0.92296,-0.76498 -0.38249,0.46148 c 0.0927,-0.11179 -0.19321,0.23309 -0.28587,0.34488 -0.89864,1.02166 -3.65668,4.28611 -6.65146,7.83284 -3.63269,4.3022 -7.62046,9.02769 -9.04677,10.65309 -5.08896,5.91665 -6.77426,10.20811 -6.80543,15.4697 -0.0148,2.52382 0.3591,4.57169 1.47653,5.99973 1.18638,1.51613 2.9646,2.04941 5.00847,2.05846 2.20536,0.007 4.235,-1.18464 5.65149,-3.23162 1.40716,-2.0335 2.2195,-4.90351 2.17843,-8.42088 -0.15511,-9.85944 -3.11817,-17.84081 -4.59487,-22.86622 -0.0254,-0.0761 -0.0505,-0.15154 -0.0752,-0.22618 -0.67742,-2.03751 -1.85123,-5.67469 -2.8669,-9.4043 -1.03172,-3.78855 -1.83425,-7.46067 -1.87756,-9.6268 -0.0391,-2.72292 0.18355,-5.16409 0.84022,-6.88355 0.31993,-0.83774 0.71441,-1.4273 1.15485,-1.80207 0.42588,-0.36236 0.99117,-0.60867 1.80802,-0.61701 1.19016,-0.0221 1.70804,0.37062 2.04523,0.93831 0.41799,0.7037 0.5668,1.73259 0.62192,2.86977 0.0543,1.66011 -0.13839,3.05084 -0.80815,4.75569 -0.68382,1.74066 -1.85538,3.78857 -3.80561,6.75403 -0.63907,0.98703 -1.96022,2.74115 -3.58024,4.81222 -1.61759,2.06795 -3.52633,4.44426 -5.351,6.69606 -3.64889,4.50305 -6.95706,8.50267 -6.91944,8.53285 l -0.36664,0.43498 0.86996,0.73328 0.36664,-0.43498 z"
         style="fill:#ed7a0d;fill-opacity:1;fill-rule:nonzero;stroke:none;stroke-width:1px;stroke-linecap:butt;stroke-linejoin:miter;stroke-opacity:1" />
      <path
         inkscape:original-d="m 288.93462,713.52301 c 0,0 13.38484,-15.87963 16.12623,-19.92645 3.97747,-5.87151 5.06544,-8.39249 5.05075,-11.99557 -0.009,-2.28569 -0.3788,-5.17703 -3.78807,-5.24016 -4.48223,-0.083 -5.53537,5.17646 -5.55584,10.73288 -0.0179,4.86296 3.283,15.53109 4.5457,19.63483 1.57839,5.0861 4.6156,12.8568 4.86135,22.53903 0.16513,6.50566 -2.84105,10.10153 -6.12405,10.16466 -3.60298,0.0693 -5.24017,-1.70463 -5.3033,-6.62913 -0.0631,-4.92449 1.38896,-9.02823 6.31345,-14.89974 2.78998,-3.32652 15.78363,-19.0035 15.78363,-19.0035"
         inkscape:path-effect="#path-effect4313-5"
         sodipodi:nodetypes="csssscssssc"
         inkscape:connector-curvature="0"
         id="path4282-02"
         d="m 289.3696,713.88965 c 0.0376,0.0302 3.42187,-3.91001 7.15074,-8.35848 1.86395,-2.22364 3.81598,-4.57666 5.47879,-6.62399 1.65504,-2.03777 3.04623,-3.79967 3.77225,-4.82929 2.02578,-2.90508 3.38987,-5.05537 4.23926,-6.94287 0.86627,-1.92502 1.20754,-3.59485 1.24848,-5.53871 0.0414,-1.1458 0.0102,-2.71053 -0.61595,-4.03715 -0.69456,-1.47148 -2.08163,-2.5434 -4.29304,-2.63493 -1.42587,-0.0509 -2.66985,0.33124 -3.70431,1.10423 -1.01733,0.76021 -1.72974,1.82017 -2.23498,2.98 -0.99384,2.28149 -1.31144,5.24254 -1.3693,8.07889 -0.0562,2.70994 0.77275,6.77715 1.70769,10.57744 0.94718,3.85006 2.05277,7.59096 2.63781,9.65648 0.0247,0.0845 0.0482,0.16488 0.0721,0.24572 1.7179,5.15754 4.65264,12.52873 4.98198,21.74458 0.1244,2.98817 -0.48447,5.16917 -1.35952,6.57567 -0.86489,1.39017 -1.9822,2.03406 -3.05865,2.10115 -1.54947,0.0778 -2.41064,-0.24018 -2.94973,-0.82532 -0.62027,-0.67324 -1.09138,-1.97356 -1.17188,-4.37476 -0.15352,-4.59106 1.05761,-8.49972 5.82147,-14.32977 1.36326,-1.70068 5.26813,-6.47783 8.82935,-10.8453 2.93371,-3.5979 5.63052,-6.91336 6.46789,-7.98596 0.0927,-0.11179 0.19325,-0.23314 0.28592,-0.34493 l 0.38249,-0.46148 -0.92296,-0.76498 -0.38249,0.46148 0,0 c 0.0927,-0.11179 -0.19321,0.23309 -0.28587,0.34488 -0.89864,1.02166 -3.65668,4.28611 -6.65146,7.83284 -3.63269,4.3022 -7.62046,9.02769 -9.04677,10.65309 -5.08896,5.91665 -6.77426,10.20811 -6.80543,15.4697 -0.0148,2.52382 0.3591,4.57169 1.47653,5.99973 1.18638,1.51613 2.9646,2.04941 5.00847,2.05846 2.20536,0.007 4.235,-1.18464 5.65149,-3.23162 1.40716,-2.0335 2.2195,-4.90351 2.17843,-8.42088 -0.15511,-9.85944 -3.11817,-17.84081 -4.59487,-22.86622 -0.0254,-0.0761 -0.0505,-0.15154 -0.0752,-0.22618 -0.67742,-2.03751 -1.85123,-5.67469 -2.8669,-9.4043 -1.03172,-3.78855 -1.83425,-7.46067 -1.87756,-9.6268 -0.0391,-2.72293 0.18355,-5.1641 0.84022,-6.88356 0.31993,-0.83774 0.71441,-1.4273 1.15485,-1.80207 0.42588,-0.36236 0.99117,-0.60867 1.80802,-0.61701 1.19016,-0.0221 1.70804,0.37062 2.04523,0.93831 0.41799,0.7037 0.5668,1.73259 0.62192,2.86977 0.0543,1.66012 -0.13839,3.05085 -0.80815,4.7557 -0.68382,1.74066 -1.85538,3.78857 -3.80561,6.75403 -0.63907,0.98703 -1.96022,2.74115 -3.58024,4.81222 -1.61759,2.06795 -3.52633,4.44426 -5.351,6.69606 -3.64889,4.50305 -6.95706,8.50267 -6.91944,8.53285 l -0.36664,0.43498 0.86996,0.73328 0.36664,-0.43498 z"
         style="fill:#ed7a0d;fill-opacity:1;fill-rule:nonzero;stroke:none;stroke-width:1px;stroke-linecap:butt;stroke-linejoin:miter;stroke-opacity:1" />
      <path
         inkscape:original-d="m 308.88393,713.34435 c 0,0 9.82142,-11.33929 11.33928,-13.08036 1.51786,-1.74108 2.32143,-3.61607 2.36607,-6.25 -0.13388,-2.90179 -2.4107,-4.01786 -2.4107,-4.01786"
         inkscape:path-effect="#path-effect4157"
         sodipodi:nodetypes="cscc"
         inkscape:connector-curvature="0"
         id="path4155"
         d="m 309.43735,713.82369 c 0.049,0.0425 2.55343,-2.74977 5.24749,-5.75963 2.69541,-3.01136 5.5811,-6.24106 6.3838,-7.06302 0.89116,-0.92155 1.61829,-1.92474 2.14166,-3.10679 0.4862,-1.15226 0.75783,-2.41693 0.8244,-3.85576 a 0.10594378,9.8517429e-4 88.631908 0 0 -0.001,-0.0911 c -0.0585,-2.58309 -1.45284,-4.14985 -2.34017,-4.8985 -0.40962,-0.3113 -0.73063,-0.47529 -0.80051,-0.50954 l -1.42822,2.91362 c -0.0703,-0.0344 0.0483,0.017 0.25142,0.17576 0.47007,0.29336 1.30788,1.03553 1.4293,2.45192 l -0.001,-0.0911 c 0.0223,1.15017 -0.11609,2.11044 -0.39736,2.96193 -0.27104,0.89185 -0.7154,1.72581 -1.36872,2.57553 -0.71402,0.91764 -3.50026,4.23105 -6.09388,7.32313 -2.59611,3.09506 -5.00243,5.97241 -4.95339,6.01493 l -0.47933,0.55342 1.10683,0.95867 0.47934,-0.55341 z"
         style="fill:#ed7a0d;fill-opacity:1;fill-rule:evenodd;stroke:none;stroke-width:1px;stroke-linecap:butt;stroke-linejoin:miter;stroke-opacity:1" />
      <path
         inkscape:original-d="m 260.98862,699.58331 c 0,0 -9.82142,11.33929 -11.33928,13.08036 -1.51786,1.74108 -2.32143,3.61607 -2.36607,6.25 0.13388,2.90179 2.4107,4.01786 2.4107,4.01786"
         inkscape:path-effect="#path-effect4157-3"
         sodipodi:nodetypes="cscc"
         inkscape:connector-curvature="0"
         id="path4155-6"
         d="m 260.4352,699.10397 c -0.049,-0.0425 -2.55343,2.74977 -5.24749,5.75963 -2.69541,3.01136 -5.5811,6.24106 -6.3838,7.06302 -0.89116,0.92155 -1.61829,1.92474 -2.14166,3.10679 -0.4862,1.15226 -0.75783,2.41693 -0.8244,3.85576 a 0.10595422,9.8527137e-4 88.631908 0 0 0.001,0.0911 c 0.0585,2.58309 1.45284,4.14985 2.34017,4.8985 0.40962,0.3113 0.73063,0.47529 0.80051,0.50954 l 1.42822,-2.91362 0,0 c 0.0703,0.0344 -0.0483,-0.017 -0.25142,-0.17576 -0.47007,-0.29336 -1.30788,-1.03553 -1.4293,-2.45192 l 0.001,0.0911 c -0.0223,-1.15017 0.11609,-2.11044 0.39736,-2.96193 0.27104,-0.89185 0.7154,-1.72581 1.36872,-2.57553 0.71402,-0.91764 3.50026,-4.23105 6.09388,-7.32313 2.59611,-3.09506 5.00243,-5.97241 4.95339,-6.01493 l 0.47933,-0.55342 -1.10683,-0.95867 -0.47934,0.55341 z"
         style="fill:#ed7a0d;fill-opacity:1;fill-rule:evenodd;stroke:none;stroke-width:1px;stroke-linecap:butt;stroke-linejoin:miter;stroke-opacity:1" />
    </g>
  </g>
</svg>
